<?xml version="1.0" encoding="UTF-8" standalone="no"?>
<!-- Created with Inkscape (http://www.inkscape.org/) -->

<svg
   xmlns:dc="http://purl.org/dc/elements/1.1/"
   xmlns:cc="http://creativecommons.org/ns#"
   xmlns:rdf="http://www.w3.org/1999/02/22-rdf-syntax-ns#"
   xmlns:svg="http://www.w3.org/2000/svg"
   xmlns="http://www.w3.org/2000/svg"
   xmlns:sodipodi="http://sodipodi.sourceforge.net/DTD/sodipodi-0.dtd"
   xmlns:inkscape="http://www.inkscape.org/namespaces/inkscape"
   width="300"
   height="250"
   viewBox="0 0 79.374998 66.145835"
   version="1.1"
   id="svg8"
   inkscape:version="0.92.3 (2405546, 2018-03-11)"
   sodipodi:docname="illustratie-1.svg">
  <defs
     id="defs2" />
  <sodipodi:namedview
     id="base"
     pagecolor="#ffffff"
     bordercolor="#666666"
     borderopacity="1.0"
     inkscape:pageopacity="0.0"
     inkscape:pageshadow="2"
     inkscape:zoom="2.4905377"
     inkscape:cx="95.270506"
     inkscape:cy="154.11822"
     inkscape:document-units="mm"
     inkscape:current-layer="layer1"
     showgrid="false"
     inkscape:window-width="1920"
     inkscape:window-height="1020"
     inkscape:window-x="0"
     inkscape:window-y="27"
     inkscape:window-maximized="1"
     units="px" />
  <metadata
     id="metadata5">
    <rdf:RDF>
      <cc:Work
         rdf:about="">
        <dc:format>image/svg+xml</dc:format>
        <dc:type
           rdf:resource="http://purl.org/dc/dcmitype/StillImage" />
        <dc:title />
      </cc:Work>
    </rdf:RDF>
  </metadata>
  <g
     inkscape:label="Layer 1"
     inkscape:groupmode="layer"
     id="layer1"
     transform="translate(0,-230.85415)">
    <path
       style="fill:#d7eef4;stroke:none;stroke-width:0.18202256px;stroke-linecap:butt;stroke-linejoin:miter;stroke-opacity:1"
       d="m 32.116834,245.23644 c 0,0 33.024092,-17.94223 44.725542,7.28092 11.701451,25.22312 -30.683801,44.72552 -58.8973,36.53452 -28.213495,-8.19102 -2.34029,-35.4944 14.171758,-43.81544 z"
       id="path815"
       inkscape:connector-curvature="0" />
    <path
       style="fill:#bdd261;stroke:none;stroke-width:0.20882221px;stroke-linecap:butt;stroke-linejoin:miter;stroke-opacity:1;fill-opacity:1"
       d="m 75.783756,233.12298 -30.029113,12.65109 20.839386,11.09196 z"
       id="path4810"
       inkscape:connector-curvature="0" />
    <g
       style="fill:#999999;fill-opacity:1"
       transform="matrix(0.49667515,0.10697716,-0.10697716,0.49667515,39.147397,205.95935)"
       id="g4587">
      <path
         inkscape:connector-curvature="0"
         id="circle4567"
         transform="matrix(0.46385392,-0.0999079,0.0999079,0.46385392,-56.032131,63.276374)"
         d="m 180.65625,77.027344 a 23.101178,23.101178 0 0 0 -23.53711,18.21875 23.101178,23.101178 0 0 0 17.71875,27.447266 23.101178,23.101178 0 0 0 27.44727,-17.71875 23.101178,23.101178 0 0 0 -17.71875,-27.449219 23.101178,23.101178 0 0 0 -3.91016,-0.498047 z m -0.48047,11.613281 a 11.478726,11.478726 0 0 1 1.94336,0.248047 11.478726,11.478726 0 0 1 8.80469,13.638668 11.478726,11.478726 0 0 1 -13.63867,8.80274 11.478726,11.478726 0 0 1 -8.80469,-13.636721 11.478726,11.478726 0 0 1 11.69531,-9.052734 z"
         style="fill:#999999;fill-opacity:1;stroke:none;stroke-width:0.81877589" />
      <rect
         y="78.322968"
         x="34.935764"
         height="2.9296718"
         width="4.7787623"
         id="rect4571"
         style="fill:#999999;fill-opacity:1;stroke:none;stroke-width:0.37699857" />
      <rect
         style="fill:#999999;fill-opacity:1;stroke:none;stroke-width:0.37699857"
         id="rect4573"
         width="4.7787623"
         height="2.9296718"
         x="34.935764"
         y="102.13547" />
      <rect
         style="fill:#999999;fill-opacity:1;stroke:none;stroke-width:0.37699857"
         id="rect4575"
         width="4.7787623"
         height="2.9296718"
         x="89.304672"
         y="-50.696232"
         transform="rotate(90)" />
      <rect
         y="-26.883732"
         x="89.304672"
         height="2.9296718"
         width="4.7787623"
         id="rect4577"
         style="fill:#999999;fill-opacity:1;stroke:none;stroke-width:0.37699857"
         transform="rotate(90)" />
      <rect
         transform="rotate(45)"
         y="25.073538"
         x="88.840973"
         height="2.9296718"
         width="4.7787623"
         id="rect4579"
         style="fill:#999999;fill-opacity:1;stroke:none;stroke-width:0.37699857" />
      <rect
         transform="rotate(45)"
         style="fill:#999999;fill-opacity:1;stroke:none;stroke-width:0.37699857"
         id="rect4581"
         width="4.7787623"
         height="2.9296718"
         x="88.840973"
         y="48.886036" />
      <rect
         style="fill:#999999;fill-opacity:1;stroke:none;stroke-width:0.37699857"
         id="rect4583"
         width="4.7787623"
         height="2.9296718"
         x="36.055241"
         y="-104.60144"
         transform="rotate(135)" />
      <rect
         y="-80.78894"
         x="36.055241"
         height="2.9296718"
         width="4.7787623"
         id="rect4585"
         style="fill:#999999;fill-opacity:1;stroke:none;stroke-width:0.37699857"
         transform="rotate(135)" />
      <circle
         r="3.2839279"
         cy="91.758926"
         cx="37.32515"
         id="circle4593"
         style="fill:#999999;fill-opacity:1;stroke:none;stroke-width:0.11639239" />
    </g>
    <g
       id="g933"
       style="fill:#808080;fill-opacity:1"
       transform="matrix(0.89340764,0,0,0.89340764,5.3917691,25.480982)">
      <path
         id="path4645"
         d="m 55.005912,239.05116 c -0.42822,0.003 -0.85588,0.0162 -1.282334,0.0352 0.297867,2.41725 0.923251,7.61985 1.191678,10.841 0.240621,2.88749 0.664514,5.80687 0.732002,8.31367 -0.547134,9.41926 -15.42343,10.13854 -16.292797,0.75618 l 0.220774,-16.95725 c -0.4544,0.16026 -0.888878,0.32031 -1.310776,0.47959 -0.233258,6.76119 -0.500573,16.01326 -0.29081,17.90113 0.290969,10.56502 20.057502,9.54107 19.650616,-2.57533 0.05636,-2.59284 -2.028913,-17.98077 -2.028913,-17.98077 l -0.0551,-0.812 c -0.178224,-0.001 -0.356289,-0.003 -0.534337,-0.001 z"
         style="fill:#808080;fill-opacity:1;stroke:none;stroke-width:0.14038165px;stroke-linecap:butt;stroke-linejoin:miter;stroke-opacity:1"
         inkscape:connector-curvature="0" />
      <path
         id="rect4647"
         d="m 53.763751,239.08458 c -0.452115,0.0196 -0.902723,0.0478 -1.35166,0.0836 l 0.215797,1.95745 1.34455,-0.14825 z"
         style="fill:#808080;fill-opacity:1;stroke:none;stroke-width:0.12388323"
         inkscape:connector-curvature="0" />
      <rect
         transform="rotate(173.70796)"
         y="-251.00246"
         x="-27.276125"
         height="2.4801042"
         width="1.352784"
         id="rect4649"
         style="fill:#808080;fill-opacity:1;stroke:none;stroke-width:0.12388323" />
      <rect
         style="fill:#808080;fill-opacity:1;stroke:none;stroke-width:0.12388323"
         id="rect4651"
         width="1.352784"
         height="2.4801042"
         x="-27.401743"
         y="-256.03491"
         transform="rotate(173.70796)" />
      <rect
         transform="rotate(173.70796)"
         y="-261.6391"
         x="-27.35252"
         height="2.4801042"
         width="1.352784"
         id="rect4653"
         style="fill:#808080;fill-opacity:1;stroke:none;stroke-width:0.12388323" />
      <rect
         style="fill:#808080;fill-opacity:1;stroke:none;stroke-width:0.12388323"
         id="rect4655"
         width="1.3527842"
         height="2.4801044"
         x="-188.39415"
         y="-191.7061"
         transform="rotate(-147.05477)" />
      <rect
         transform="rotate(-98.235976)"
         y="9.1871376"
         x="-269.961"
         height="2.4801044"
         width="1.3527842"
         id="rect4657"
         style="fill:#808080;fill-opacity:1;stroke:none;stroke-width:0.12388323" />
      <rect
         style="fill:#808080;fill-opacity:1;stroke:none;stroke-width:0.12388323"
         id="rect4659"
         width="1.3527842"
         height="2.4801044"
         x="-207.86409"
         y="168.18315"
         transform="rotate(-60.02603)" />
      <rect
         transform="rotate(-2.9931701)"
         y="259.70914"
         x="25.515724"
         height="2.4801042"
         width="1.3527842"
         id="rect4661"
         style="fill:#808080;fill-opacity:1;stroke:none;stroke-width:0.12388323" />
      <rect
         style="fill:#808080;fill-opacity:1;stroke:none;stroke-width:0.12388323"
         id="rect4663"
         width="1.3527842"
         height="2.4801044"
         x="48.413528"
         y="250.15308"
         transform="rotate(2.0780802)" />
      <rect
         transform="rotate(2.0780802)"
         y="244.65645"
         x="48.214077"
         height="2.4801044"
         width="1.3527842"
         id="rect4665"
         style="fill:#808080;fill-opacity:1;stroke:none;stroke-width:0.12388323" />
      <path
         id="rect4667"
         d="m 40.645329,241.67378 c -0.472873,0.15724 -0.927938,0.31573 -1.371212,0.47461 l -0.05333,1.47218 1.352014,0.0491 z"
         style="fill:#808080;fill-opacity:1;stroke:none;stroke-width:0.12388323"
         inkscape:connector-curvature="0" />
    </g>
    <g
       id="g939"
       transform="translate(0.95611883)">
      <path
         sodipodi:nodetypes="ccccc"
         inkscape:connector-curvature="0"
         id="path4721"
         d="m 47.491372,283.69885 c -0.206099,6.35832 -8.880802,9.23766 -8.880802,9.23766 0,0 4.229083,-0.81615 9.3143,-0.73426 5.674443,-0.52984 9.000517,-2.28275 10.586842,-7.24962 2.500517,-8.01484 -10.513949,-8.20984 -11.02034,-1.25378 z"
         style="fill:#ffe680;stroke:none;stroke-width:0.0739887px;stroke-linecap:butt;stroke-linejoin:miter;stroke-opacity:1" />
      <path
         sodipodi:nodetypes="ccccc"
         inkscape:connector-curvature="0"
         id="path4723"
         d="m 51.22224,286.90689 c -0.828076,-0.57639 -2.718453,-0.93033 -4.063394,-1.4618 -1.716386,4.64339 -8.548276,7.49142 -8.548276,7.49142 6.773712,0.12184 9.389581,-0.0979 14.345736,-1.79047 -0.0019,-1.31451 0.159932,-2.92083 -1.734066,-4.23915 z"
         style="fill:#81c9db;fill-opacity:1;stroke:none;stroke-width:0.0739887px;stroke-linecap:butt;stroke-linejoin:miter;stroke-opacity:1" />
    </g>
    <path
       style="fill:#c6bb90;fill-opacity:1;stroke:none;stroke-width:0.08461844px;stroke-linecap:butt;stroke-linejoin:miter;stroke-opacity:1"
       d="m 75.729824,250.35753 -21.341699,28.25418 c -0.962847,1.94618 4.432499,5.88869 5.649098,4.31592 l 18.627358,-24.34317 c -0.270353,-1.97605 -0.864458,-4.00238 -1.822359,-6.06719 -0.351938,-0.75862 -0.723337,-1.47767 -1.112398,-2.15974 z"
       id="path4728"
       inkscape:connector-curvature="0"
       sodipodi:nodetypes="cccccc" />
    <path
       style="fill:#ffae78;fill-opacity:1;stroke:none;stroke-width:0.40741"
       d="m 46.07479,274.47085 c -1.091618,6.02013 -20.141773,7.92145 -32.452275,5.68919 -26.18459,-9.47417 -1.889822,-22.96042 12.138702,-20.63144 12.310499,2.23224 21.405187,8.92211 20.313573,14.94225 z"
       id="path4812"
       inkscape:connector-curvature="0"
       sodipodi:nodetypes="sccs" />
    <g
       id="g4565"
       transform="matrix(0.66035699,0.1154962,-0.1154962,0.66035699,8.1545616,198.84008)"
       style="fill:#666666;fill-opacity:1">
      <path
         style="fill:#666666;fill-opacity:1;stroke:none;stroke-width:1.11072934"
         d="M 84.123047,86.560547 A 31.338435,31.338435 0 0 0 53.179688,112.5 31.338435,31.338435 0 0 0 78.650391,148.76953 31.338435,31.338435 0 0 0 114.91992,123.29883 31.338435,31.338435 0 0 0 89.449219,87.029297 31.338435,31.338435 0 0 0 84.123047,86.560547 Z m -0.03711,15.767573 a 15.571729,15.571729 0 0 1 2.646484,0.23243 15.571729,15.571729 0 0 1 12.65625,18.02148 15.571729,15.571729 0 0 1 -18.021484,12.65625 15.571729,15.571729 0 0 1 -12.65625,-18.02148 15.571729,15.571729 0 0 1 15.375,-12.88868 z"
         transform="matrix(0.34454202,-0.06026028,0.06026028,0.34454202,1.2617734,56.202587)"
         id="circle819"
         inkscape:connector-curvature="0" />
      <rect
         style="fill:#666666;fill-opacity:1;stroke:none;stroke-width:0.37699857"
         id="rect4530"
         width="4.7787623"
         height="2.9296718"
         x="34.935764"
         y="78.322968" />
      <rect
         y="102.13547"
         x="34.935764"
         height="2.9296718"
         width="4.7787623"
         id="rect4532"
         style="fill:#666666;fill-opacity:1;stroke:none;stroke-width:0.37699857" />
      <rect
         transform="rotate(90)"
         y="-50.696232"
         x="89.304672"
         height="2.9296718"
         width="4.7787623"
         id="rect4542"
         style="fill:#666666;fill-opacity:1;stroke:none;stroke-width:0.37699857" />
      <rect
         transform="rotate(90)"
         style="fill:#666666;fill-opacity:1;stroke:none;stroke-width:0.37699857"
         id="rect4544"
         width="4.7787623"
         height="2.9296718"
         x="89.304672"
         y="-26.883732" />
      <rect
         style="fill:#666666;fill-opacity:1;stroke:none;stroke-width:0.37699857"
         id="rect4546"
         width="4.7787623"
         height="2.9296718"
         x="88.840973"
         y="25.073538"
         transform="rotate(45)" />
      <rect
         y="48.886036"
         x="88.840973"
         height="2.9296718"
         width="4.7787623"
         id="rect4548"
         style="fill:#666666;fill-opacity:1;stroke:none;stroke-width:0.37699857"
         transform="rotate(45)" />
      <rect
         transform="rotate(135)"
         y="-104.60144"
         x="36.055241"
         height="2.9296718"
         width="4.7787623"
         id="rect4550"
         style="fill:#666666;fill-opacity:1;stroke:none;stroke-width:0.37699857" />
      <rect
         transform="rotate(135)"
         style="fill:#666666;fill-opacity:1;stroke:none;stroke-width:0.37699857"
         id="rect4552"
         width="4.7787623"
         height="2.9296718"
         x="36.055241"
         y="-80.78894" />
      <circle
         style="fill:#666666;fill-opacity:1;stroke:none;stroke-width:0.13803643"
         id="circle4591"
         cx="37.32515"
         cy="91.758926"
         r="3.894599" />
    </g>
    <g
       id="g4643"
       transform="matrix(0.64756282,0,0,0.64756282,-20.87659,186.30009)"
       style="fill:#666666;fill-opacity:1">
      <path
         sodipodi:nodetypes="cccccccsccc"
         inkscape:connector-curvature="0"
         id="path4597"
         d="m 50.92635,152.80519 c 0,0 -3.930711,-29.00227 -3.824475,-33.8891 -0.766879,-22.836303 36.488184,-24.765845 37.036582,-4.8535 0.637413,5.73671 -1.062355,47.59347 -1.062355,47.59347 h -2.124708 l 0.584296,-44.91102 c -1.638533,-17.68333 -29.675984,-16.32722 -30.707185,1.42567 0.12719,4.72467 0.926237,10.22695 1.379749,15.6691 0.676077,8.11294 2.554073,22.91154 2.554073,22.91154 l -3.68087,-1.65264 z"
         style="fill:#666666;fill-opacity:1;stroke:none;stroke-width:0.26458332px;stroke-linecap:butt;stroke-linejoin:miter;stroke-opacity:1" />
      <rect
         transform="rotate(-6.292036)"
         y="155.70497"
         x="37.033943"
         height="4.6743588"
         width="2.5496502"
         id="rect4606"
         style="fill:#666666;fill-opacity:1;stroke:none;stroke-width:0.23348801" />
      <rect
         style="fill:#666666;fill-opacity:1;stroke:none;stroke-width:0.23348801"
         id="rect4608"
         width="2.5496502"
         height="4.6743588"
         x="37.069145"
         y="145.23468"
         transform="rotate(-6.292036)" />
      <rect
         transform="rotate(-6.292036)"
         y="135.74977"
         x="36.832405"
         height="4.6743588"
         width="2.5496502"
         id="rect4610"
         style="fill:#666666;fill-opacity:1;stroke:none;stroke-width:0.23348801" />
      <rect
         style="fill:#666666;fill-opacity:1;stroke:none;stroke-width:0.23348801"
         id="rect4612"
         width="2.5496502"
         height="4.6743588"
         x="36.925171"
         y="125.18732"
         transform="rotate(-6.292036)" />
      <rect
         transform="rotate(32.945228)"
         y="61.619701"
         x="104.55583"
         height="4.6743588"
         width="2.5496502"
         id="rect4614"
         style="fill:#666666;fill-opacity:1;stroke:none;stroke-width:0.23348801" />
      <rect
         style="fill:#666666;fill-opacity:1;stroke:none;stroke-width:0.23348801"
         id="rect4616"
         width="2.5496502"
         height="4.6743588"
         x="112.14817"
         y="-50.137272"
         transform="rotate(81.764024)" />
      <rect
         transform="rotate(119.97397)"
         y="-120.10754"
         x="54.422413"
         height="4.6743588"
         width="2.5496502"
         id="rect4618"
         style="fill:#666666;fill-opacity:1;stroke:none;stroke-width:0.23348801" />
      <rect
         style="fill:#666666;fill-opacity:1;stroke:none;stroke-width:0.23348801"
         id="rect4620"
         width="2.5496502"
         height="4.6743588"
         x="-75.820656"
         y="-122.70888"
         transform="rotate(177.00683)" />
      <rect
         transform="rotate(-177.92192)"
         y="-127.37012"
         x="-86.293709"
         height="4.6743588"
         width="2.5496502"
         id="rect4622"
         style="fill:#666666;fill-opacity:1;stroke:none;stroke-width:0.23348801" />
      <rect
         style="fill:#666666;fill-opacity:1;stroke:none;stroke-width:0.23348801"
         id="rect4624"
         width="2.5496502"
         height="4.6743588"
         x="-86.669617"
         y="-137.72983"
         transform="rotate(-177.92192)" />
      <rect
         transform="rotate(-177.92192)"
         y="-147.33884"
         x="-87.01828"
         height="4.6743588"
         width="2.5496502"
         id="rect4626"
         style="fill:#666666;fill-opacity:1;stroke:none;stroke-width:0.23348801" />
      <rect
         style="fill:#666666;fill-opacity:1;stroke:none;stroke-width:0.23348801"
         id="rect4628"
         width="2.5496502"
         height="4.6743588"
         x="-86.830559"
         y="-156.66663"
         transform="rotate(-177.92192)" />
    </g>
  </g>
</svg>
