<svg xmlns="http://www.w3.org/2000/svg" width="1124" height="804" version="1"><path fill="#f09f8d" d="M103 554l1-1v-3c-2-1-2-4-1-6 0-1 1-2 2 0h2v-4c0-6 0-7-4-7s-5-1-3-2l2-5-3-1-4-2c-2-1-5 0-5 3 0 1 3 3 4 2v5c1 2-1 3-5 3h-5c-2-2-5-4-6-3v1c0 1 0 2-2 3l-2 3c0 2-4 5-5 3v-2c2-2 2-3 2-6l1-5 2-4v-1l3-2c2-2 1-2-2-2l-1-1-1-1h-2l2-2c4-2 8-6 8-7l-2-1-1-2-2 1-6 3h-8v-3c1-3 1-4-1-6-1-1-1-2 1-1l2 1 9-4c1-1 0-2-1-2l-1-2 2-4c1 1 3-1 2-2l-3-1h-2v-3l1-3 3-1 2-1c2 0 2-1 1-2l-1-2-1-1c-2-1-3-2-3-4-2-4-2-5-1-6h6c2 1 2-1 0-3l-3-2v-1h-1l3 1h7c1 0-1-4-3-5-2-2-2-2-1-4 2-2 2-3 1-4v-1c1-1-1-3-3-3l-2-2-2-2c-2 0-1-1 1-2s2-2-2-3c-4-2-5-3-5-5l-1-3c-1-1-1-1 1-2l11-1 5 1h4c4-1 5-2 3-4v-2c1-1 1-3-1-5l-1-3-1-1c-3-2-1-3 2-1h5v-4l-1-4c1-1 2 0 2 1l3 1h3v-1l1-1 2-2 1-2v-1l1-3 1-4 2-2 1-1 1-1 3-1 2-1 2-2 1-2 1-3 1-2h3l2-1c1 0 3-3 3-5s1-2 3-1l2 1 4-4h-3-1-1v-2-1l1-1 1-1 1-1 2-2v-1c1 0 5-4 5-6l1-3c-1-1 0-2 1-3l2-3 1-1 2-1 3-2 2-2 2-2 1-2c1-2 1-2 4-2l4-2 5-3 4-1 2-1 2-1 2-2 1-1 2-1 1-3-1-2h2c2-1 2-4 1-4s-2-1-1-2l1-1v-1-1c1 1 5-3 5-4l-3-2-5-2 2-1c0 1 1 1 0 0v-1h5c3 1 5-1 4-2s0-1 2-1c6 1 11 0 12-3 0-1 0 0 0 0l1 1 1 1 1 2v2h9c2 2 7 2 7 1-2 0-5-3-4-4l-1-2v-2h4l2 1v1l4-2 2-1a34 34 0 0 0 5 1l1 2c0 1 2 2 5 2h2v-2l-1-3v-1-3c-1-1 1-2 5-1l4 1c1 2 9 0 9-2l-2-2-2-1h-1v-1h2l5-1 3 3 1 1 1 2 1 1v1l-1 1c-2 0-4 1-3 2l2 1h2v1c-1 1-1 2 1 4h3l2-1 2-1 4-3 5 5h3a488 488 0 0 1 23-1l-1-2-1-1h4c1 1 1 1 3-1l1-2 1-1v1l1 1-1 1 4-1c3-1 4-2 2-3s-2-3 0-3l2 1 1 1 2 1 1 1h-1l-2 1-1 1c0 1 0 2 3 2h4l8-8v-3c-1 0-1 0 0 0 2 0 7-5 8-8 2-4 3-5 5-6l6-2c0-2 5-5 8-6 4-1 5-1 5 1l5-1 5 1 3 1h5c4 1 4 1 8-1l8-2 4 1h-1v4c0 1 3 1 4-1 0 0 0-1 0 0l3 1 5 1c2 1 3 5 3 7-1 1 1 2 2 1h26l5 2c3 3 4 3 7 3l2-1 3 1 4 1 8 1h11c3-1 10-4 11-6l3-2 3-1-1 3c-2 0-2 1-2 3l-13 7h-8l-6 1c-1 1 1 1 4 1l3 1-1 1c0 1 3 2 5 1h2l-2-1-2-1h1l5 1c3 1 10 0 11-1h2l2-1 2-1 3-1h2l-3 4-3 1h-2v2h-4l-6 2-4 1c-2 1-2 1-2 3 0 3 2 3 6 2l5-1 4-1h4c3-1 3 0-1 1l-4 2-4 1c-5 2-6 2-2 2a61 61 0 0 0 27-9l11-6s0-1 0 0l4-1c4-1 7-1 9 2l2 3 2 3c2 3 5 4 12 4l12 1c6 1 8 1 13-1h20l8 1-2 2-2 1-2 2h-1l-4 2-1 1-11-1-6-2-6-1-8 1h-14c-3-1-8-4-9-6l-8-8c-3-2-5-1-9 4l-4 4c1 0 1 1-1 2-3 1-6 4-5 5h-1c-2 0-3 3-2 4l2 3v4l-1-1h-1l2 1 1 3c-1 2-1 1 1 3 2 1 4 1 3-1h2c1 1 5 0 6-1h2l4-1h7l3 1h7l3 1c2 0 2 1 1 1-1 1-1 1 2 1l2 1v1l1 1h5v-2c-1-2 0-3 1-1l1 1c2 1 3 1 7-1 8-4 21-6 21-2l2 1 1-1 2-1 2 1 17-1c8-2 20-2 22 1h8a1687 1687 0 0 1 20 2l19 1a441 441 0 0 1 47 1 22396 22396 0 0 1 65-2 3433 3433 0 0 1-30-5h61a1324 1324 0 0 1 71 0c0 1-1 2-4 2l-3 1-3 1h-2l1 2 8 1a537 537 0 0 0 73-5c6 0 7 1 7 2-1 0-1 1 0 0v2l-2 4 3 1h3l3-3 4-3 3-2v-2c-2-1 0-2 4-2l1 1 4 3 1-1v-2l5-2h1l1-2 1-1h2l4-2 4-2 2-1 3-2 2-1 1-1 2 1-5 3c-3 0-1 1 3 1h4v2c-1 1-2 3 0 4l1 1c0 2-3 2-7 1h-3l-1 2-4 2-2 1-1 1-2 1 2 1c3 4 1 6-5 3l-8-5-4-1c-2-1-2-1-1 1l-1 2c-1 0-1 0 0 0 2 1 2 1 0 2l-1 2c0 2-1 2-3 2l-4 2-4 1c-3 0-4 0-5 2l-3 4 18 1a77 77 0 0 1 14 1c2 0 1 2-1 2l-4 1-16 1-14 1-1 1 6 1c4 0 6 2 4 3v1l1 1h-2l-2 1c0 3 1 4 5 4l4 1h26v2h-5c1 2 0 3-2 3l-1 1v3l1 2c1 1 1 1-1 1l-4 1h-7l-2-1c-2 0-2 0-1 1l2 1-1 2-2 3 1 1c2 1 2 1-1 1l-10 1-1 4-1 3c-2 1-1 2 5 2h9l3-1c-1-1 0-1 1-1h2l-1-2-2-1 5-1 4 1 2 1 2 2 1 3c1 1 0 3-2 3l-1 1 1 1-1 4-3 2c-5 1-8 3-8 6l-1 2h-28l-7 1-5 1-1 2c-2 0-2 1-1 2h4l4 1 6 1c7 0 10 1 10 3s-1 2-3 2h-1c1 1 0 1-7 2l-6 1-3 1h2l14 3c2 1 2 2 0 2a345 345 0 0 0-29 1v2h-12a207 207 0 0 0-22 1c-5 1-10 3-9 4l-1 1-3 1v1h6l11-2 13-2h8 13l8 1c2 0 2 0 0-1l-3-1 10-2c4 0 7 1 7 2v2l-1 1c-2 0-2 1 0 2l1 2-5 1h-5c-2 1-3 1-2 2v2l4 1 5 1-10 1-9 1c-2 2-2 3-1 3l2 1h-1l-3 2-1 1-1-1v1-2l-1-2c-1-1-3 1-3 2h-2v1l-2 2c-2 0-4 3-3 4l7 1h6l2 1h4c2 0 2 0 1 1l-1 1-2 1c-5 0-1 1 4 1 2 0 3 1 1 1l-2 2h-5a387 387 0 0 0-17 0c0 2-2 3-6 1h-5l-4 1c-6 0-7 0-4 2l4 1h2l6 1 4-1h5l-3 1c-4 0-7 2-6 2l-1 1h-1c1 1 0 1-1 1l-2 1-6 1-6 1h-16l-6 2-12 4c-8 3-7 4 3 3a148 148 0 0 1 19 0l-17 2c-14 0-17 1-17 2s-2 2-20 2a292 292 0 0 0-46 4 933 933 0 0 1-55 1 316 316 0 0 1-82 0l-11 1c-7 1-50 0-56-1l-12 2-6 1h-8l-4-1h-5c-2 1-6 0-14-1h-4c-2 1-2 1 0 2 1 1 0 1-4 1h-6l-13 2a130 130 0 0 1-23-3l-8 3v1c1 2 1 2-2 2l-3-1-2-1-4-1h-8l-3 1-4 1c-4 1-8 0-14-2l-6-3-3 2a232 232 0 0 1-11 4c-3 1-3 2-2 2a256 256 0 0 0 4 1l4 1h3c1 2-15 1-26-1l-13-2c-6 0-11-1-11-2-1-2-8-3-10-1l-3 1h-5c-3 2-8 2-10 2l-11-1c-1 1-4 0-3-1 0-2-3-2-7-1l-5 1-1 1-2 1h-5l-7 1c-2 1-2 1-7-1-5-1-6-2-9 0l-5 1h-12c-4 0-5 0-6 3-2 2-2 2 3 2l3 1-7 1-2 1c0 2-4 2-10 2a541 541 0 0 0-59 4h-4l1 1 1 2c0 2-4 2-15 3l-10 1-1 1c-3 1-3 1-4-1l-4-1c-4 0-4 0-7 2s-6 2-5 1l-1-1-2-1h-14c-1-1-11 0-11 1l3 1h1c-5 0-6 2-3 2 2 1 3 3 1 3h-3l-3-2c-2 1-1 3 1 4v3c0 1-1 2-4 2l-3 1-1 1-2-2c0-2-4-2-5-1h-10c-1-1-3 0-4 1l-1 2-1 1-2 1-1 1-2 2h-2zm10-10v-1l3-1c2 0 1-1-2-1-2-1-2-1-2 1l-1 2h2zm13 1l1-1-3-2-1 1-1 1c-1 1-1 1 1 1h3zm1-5h2l2 1 2-5-1-3-1-2-2-1c-2-1-6 1-5 2l-1 2c-2 0-2 1 0 2h1l-1 1-1 1v2h5zm-37-8c2-1 2-3 1-3h-2l-3-2v1l-1 1v2 3c1 0 3 0 5-2zm23-5c1-1 1-1-1-1l-2 1h3zm-28-3c1-1 0-2-1-2-2 1-2 3 0 3l1-1zm-4-1v-1l-1 1 1 1v-1zm192-6c5 0 6 0 6-2v-2l-9 1a198 198 0 0 0-13 2l-3 1h19zm16 0l1-2v-2h-2-3c-2 0-2 1-2 2v1l1 1h5zm-191-7h5c1 1 5 1 5-1l-1-2h-6l-1-1v-1c-2 1-3-1-1-2l2-1h-2c-1 0-3-2-2-3l3-1 5-1-4-1-4-1c-2 0-4 1-5 4l-2 2-2 1-3 1-3 1-2 1 3 2 7 3h8zm283-2l-1-2c-2-2-2-2-3-1h-2c-4 0-4 1-2 3l4 1 4-1zm4-1l2-1 1-1c-2-2-3-2-3 0v1l-2 1h2zm89-1l1-1h2l2-1-4-1-2 1h-1l-2 1 2-2 1-1-4-2-3-1-5 1c-3 2-4 3-2 4l3 1 3 1 4-1h1l-1 1-1 1h2l4-1zm-366-1v-1l-3 1h3zm319 0l8-4-8-3-1-1c1-1-2-1-5 1l-4 1v1h-2l-1 1h1v1l-2 1c-1 0-2 0-1 1l4 1h11zm9-2v-1l-1 1c-1 0 0 0 0 0h1zm-22-4l4-1 2-1 1-1-3-1a8926 8926 0 0 0-19 1l-1 2h-2l2 1 4 1c4 2 8 1 12-1zm27 2v-1l-2 1h2zm85-1v-2l-2-3c0-1 0-2-2-1l-9 2-4-1-4 1c-1 1-1 2 1 2l2-1 1-1 1 1c0 1 0 2 3 1 2 0 3 0 2 1-2 0-1 1 2 2l9-1zm-419-1h-3l-1 1c1 1 4 0 4-1zm385 0c3-2 4-2 2-2l2-1 4-1c2-1 1-2-4-2h-3l2-2c1 0 1-1 0 0-3 0-12 4-12 5-2 1-1 2 1 1 7-3 8-3 8-2v1l-1 1-8 2 4 2 5-2zm48-1l3-2h-3l-3-1-3-1-4 1-1 2 1 1c-1 0 0 0 0 0l1 1 9-1zm-8 0l1-1v1h-1zm47-3l4-2c3-1 2-2 0-1l-12 1-6 1-2 1h5l1 1 4 1 6-2zm126 0a878 878 0 0 1 82-2l22-2c3-1 12-2 20-1l10-1 11-1 2 1 4-1c8 0 24-3 25-4h-5a1159 1159 0 0 1-47 3l-46 1-24 1c-2 2-33 2-47 1a128 128 0 0 0-44 2l2 1c0 1 2 2 12 2l7 1 16-1zm-599 0h-1 1c1 0 1 0 0 0zm554-1h-4 4zm-48 0l-4-1 3 1h1zm41 0h-2 2zm-557-2l-2 1h1l1-1zm537 1c7 0 9-1 4-2l-14-4h-5c-3 0-4 1-3 2v1l-1-1h-5c-1 1-1 1 1 2l5 1c1 2 1 2 6 1h12zm-73-1h-2l1 1 1-1zm43 0l2-1-7-1c-7 0-8 0-7 1l5 1h7zm-218-2h-2 2zm107-5l-3 1c-1 1-1 1 1 1l2-2zm53-1c2 0 2 0 0-1l-8 1-1 1h3l6-1zm41-5h-2l1 1 1-1zm276-4c19-1 21-2 5-2s-21 1-21 2l7 1 9-1zm106-7h-1 1c1 0 1 0 0 0zm-405-18c3-1 2-2-1-1l-4 1h-3v2c1 1 5 0 8-2zm6 2l2-1c0-2-6-1-8 1h6zm169-2v-1l-18-1c0 2 4 2 8 2h3l3 1 4-1zm-158-2l7-1c5 0 5 0 2-2h-6a56 56 0 0 0-9 2c-3 0-3 1 0 1h6zm199-2h-1c-1 0 0 0 0 0h1zm4-1h-2 2zm-696-1c0-3-2-3-4-2-1 1-1 1 2 2 3 2 3 2 2 0zm712 1c9-1 8-2 0-2l-13 2h13zm69-4c1-1 1-1-3-1a708 708 0 0 1 3 1zm6-1l-1-1-2 1 2 1 1-1zm-274-2l-7-1 1 1h6zm65-1l-4-1-3 1h3l4 1v-1zm-152 0c1-1 1-1-4-2h-4l-1 1 9 1zm390-1c5-1 6-1 4-2h-7l-9 1-4 1c-1 1 0 1 5 1l11-1zm41 0l-3-1c-7 0-7 2-1 2l4-1zm8 0h-3c-1 1 0 1 2 1h2l-1-1zm-347 0c0-2 0-2-2-1-2 0-2 1-1 1h3zm114 0l6-1 6-1h-10a59 59 0 0 0-15 2h13zm-63-1h-4l2 1 2-1zm106 0h-3 3zm-64-1l-5-1-4 1 5 1 4-1zm-176 0v-2c-1-1-2-1-6 1h-3l-2-1v1l2 1h9zm149 0l-1-1c-1 0-2 0-1 1h2zm116-1h-3 3zm-133-1a134 134 0 0 0 6-2h-13l-1 1 1 1h7zm-61-2c4-2 4-2 2-2h-4l-4 2c-2 0-3 0-2 1l8-1zm-514-3c1-1 0-1-1-2h-8l1 1 6 2 2-1zm40-6l-2-1v1h2zm817 0l-3-1c-3 0-4 1-3 2l6-1zm-803-6c0-1-3-5-4-4l-1-1h-6l-1 1v4l6 1 6-1zm476-16c1-1-2-2-3-2-2 0-2 0-1 2h4zm71-1l-2-1-1 1 1 1 2-1zm-57-2c1 0-2-2-5-2l-4 1c-2 0-2 0-1 1h10zm333-12h-4c-1 0-1 1 2 1 4 0 4-1 2-1zm28-2l-1-1-2 1h3zm-404-19c2-1 2-2 0-1-3 0-4 1-2 1h2zm-93-2h-2l1 1 1-1zm520-1h5c0 1 3 1 6-1h2l1-1h1l1-1c0-2 0-2-14-2-8 0-9 0-7 2l2 1c0-1 0-1 0 0l-1 1-1 1 2 1 3-1zm-319-2c1 0 1-1-1-1l-5-1c-7-3-21-1-14 1h16c1 1 2 2 4 1zm63 0l-19-1 12 1h7zm-121-1h-2c-1 0-2 1 0 1l2-1zm-472-1v-1l1-1 2-1 2-2h1l2-1 1-2 5-2 2-1c0-1-2-2-3-1h-1l-2-1-1 1v3l-4 1-5 1-2 2c-2 1-1 3 0 3v1l-1 1h3zm837 0c2-1 0-1-9-1h-9l4 1h14zm-416-1l-3-2-5-3c-3-3-4-3-5-2v2c1 2 1 2 4 2 2 0 2 0 1 1s-1 1 1 1a916 916 0 0 1 7 1zm138-1c2 0 2 0 1-1h-20l2 1h17zm64 0h-2l1 1 1-1zm26 0c2 0 3 0 2-1v-2l9-1 8 1-3 1h31-2l-3-1-3-1h-1l1-1h-2c-2 0-2 0-1 1l1 1-2-1h-1l-5-1a486 486 0 0 1-33-1h-11a336 336 0 0 1-46 0l6 1 6 1h-2c-2 1-3 2-1 2l12 1 7-1c8 0 9 1 10 2l11 1 12-1zm-195-1c0-1-1-2-3-1l-3 1h6zm-16-2c2 1 8-1 10-2h-4a43 43 0 0 0-10 1l-1 2h1l4-1zm36 0c2-1 3-1 2-2 0-2 0-2 2-1h7l1-1c1 1 3 0 3-2h-3l-4 1h-7l-4-1h-3c0 1-2 3-3 2s-9-1-12 1h-3 7c1-1 2-1 3 1 2 2 6 4 9 4l5-2zm28 1l-8-1c-4 0-4 0-3 1l6 1c3 0 6 0 5-1zm237 0h0v-1h-1v-2l-5-1-4 1v1h-1c1 1-1 2-3 3l14-1zm-7-3h1v1l-1-1zm-379 3h-1 1zm72 0c1-1-1-2-3-2s-3 2-1 2h4zm318 0l-1-1 1 2v-1zm7-1h4l2-1h-2l-4-1-2 2 1 1 1-1zm20 0h4c1-1-1-2-5-2a240 240 0 0 1-11 2l5 1 7-1zm46-1c4-1 8-2 7-3l-8 1-8 1c0 2 2 2 4 2l5-1zm-120 0a378 378 0 0 1 0 0zm138 0h-1 1zm-89-2h-3 1l1 1 1 1v-2zm-208 0l-4-1c-5 0-5 0-4 1h8zm42 0c-5-4-6-4-11-4l-5 1-6 1c-6 0-7 0-5 1l7 1 4-2 6 1 9 2h3l-2-1zm139 1h0s1 0 0 0zm7-1h-3 3zm4 1l-2-1h-2l2 1h2zm12-1h-2 2zm-221-1l-1 1 1-1zm233 0h-4 4zm-370 0l5-1 2 1c2 0 2 0 0-2l-3-2c-2-2-5-1-6 1l-1 3h3zm43 0h-1 1c1 0 1 0 0 0zm83 0h-1 1c1 0 1 0 0 0zm274-2h4c1 1 1 1 0 0h1v-1h-6c-8 0-10 1-8 2l9-1zm33 0c3 0 4-1 5-3 0-2-2-2-5 0h-4c-1-1-6-1-9 1l-2 1 2 1 1 1 12-1zm-420-1l2-1c1 0 1 0 0 0h-3c0 1 0 1 0 0l-1-1h-3l-2-1 1 2 5 3 1-2zm112 0h-1c-1 0 0 0 0 0h1zm318-1l-5 1h2l3-1zm-342 0l-5-1c-4 0-4 0-3 1h8zm-145-2l1-1-2-1c-2-2-4-2-7-1v1c3 3 5 4 8 2zm425-6a318 318 0 0 1 15-2 156 156 0 0 0-41 2h26zm-329-1c1 0 1 0 0 0-1-1-3 0-3 1h1l2-1zm118 0l13-1a161 161 0 0 0 16 0h8a239 239 0 0 1 10 1v1a223 223 0 0 0 25-2c-2-1-7-3-11-3-18-1-33-2-39-1-10 1-24 2-29 1-10-2-34-3-38-2-3 2-7 1-12 0l-6-1c-2 0-2 2 0 2l4 1h13a44 44 0 0 1 23 1l10 1 4 2 5 1 4-1zm117 0a224 224 0 0 1 14-2h-5a355 355 0 0 0-38 2h29zm-183-2h-2 2zm-2-2c0-2-1-3-3-3h-3l2 2 4 1zm320-1h-2l1 1c1 0 2 0 1-1zm7 0v-1l-3 1h3zm-475-2c1-1 0-1-3-2l-3 1c0 1 5 2 6 1zm6-1h3c2-1 2-1 0-1h-5v1h2zm475-3h3l3-1 1-3c-2-1-14 2-14 3l-1 1c-1 0-1 1 1 1 3 1 7 0 7-1zm-465 1l-1-1-1 1h2zm370-3l-1 1 1-1zm23 0l-4-1-17 1h21zm-385-1l-1-1v1h1zm469-2c0-1 1-3 3-3h3c1-1 0-1-1-1l-4 1-2 1-2 1v2c1 1 4 1 3-1zm-521 1h-2 2zm47-1l-2-2c-1 0-2 1-1 2h3zm97-1v-2l-3-2h-3c-6 0-7 2-2 3l2 1h6zm-153-1c-3-2-5-1-5 0l4 1h3l-2-1zm66-1l-2-3 1 3c1 2 1 2 1 0zm307 1h-2-1 3zm-180-2l-2-1h-6c-3 1-4 2 0 2 3 1 8 0 8-1zm-198-1h-3l2 1c1 0 2 0 1-1zm11-1l-1-1-1-1h-3l-3-1c-2 0-3 0-2 1 1 2 10 3 10 2zm32-3h2 5l2 1 2-1c2 0 1-1-1-1l-6-2c1-1-2-2-7-2-5 1-6 0-10-3-6-3-22-8-23-6l3 2h-4l-5-1c-2 1-2 2 0 3 1 1 5 3 6 2l13 2c13 2 15 2 11 3l-2 2 4 2 10-1zm-53-2h7l-7-3h-3c-2 0-2 0-1 1 1 3 3 3 4 2zm12-2l-1-1-1 1h2zm-190-3h-1-1l1 1 1-1zm165-2v-2l-5 1 1 1-2 1-1 1h3l4-2zm8 2c0-1-1-2-2-1-2 0-1 2 1 2l1-1zm-228-2c2-1 2-1 0-1l-3 1h3zm24-2h-1l1 1v-1zm41-1c1-1-5-2-10-1-2 1-3 1-1 2l11-1zm36 0h-2l1 1 1-1zm121-1h-2l-1 1c2 1 3 0 3-1zm-93 1l2-2-5-1h-6-3l-2 1h2l3 1 9 1zm-34-1h-1 1zm10-1l-5-1v2l5-1zm114 0l2-1-3-1-3-1-1 3h5zm-46-3l5-1 3 1 3-1c0-3-3-6-4-4h-2l-3 1-2 1h-3l-2 1-1 2c0 3 1 3 6 0zm15-1l-1-1c-1 1 0 1 1 1zm18 0c1-1 1-2-1-2h-4c0 2 3 3 5 2zm-161-3l-4-2 1 2h3zm11 0l-1-1v1h-1c-1 0-1 0 0 0h2zm-9 0h-1 1s1 0 0 0zm158 0l-1-1-1 1h2zm35-1c4 0 5 0 5-2l-2-1-9 3 3 1 3-1zm-120 0v-1c-1-1-2 0-2 1h2zm-100-1h-1l1 1v-1zm229-3h-1l-1 1v1h1l1-2zm-202 1c0-1-3-2-5-1h-1l2 1h4zm11-3c1-1 1-2-1-2-1-1-2 0-2 2h3zm210 0h-1s-1 0 0 0l1 1v-1zm-222-1l-1-1-1 1h2zm6 0h-2 2zm208-3l-1-1h-3c0 1 3 2 4 1zm-7-2s-5-3-6-2h-2c-3-1-3 0-1 1l3 1 2 1c1 1 4 1 4-1zm19 0l-3-1-2 1h5zm-78-2l6-3h-8c-4 2-4 3-3 4s1 1 5-1zm-34-4l1-1 2-2c2-2 2-3 0-3l-2 2-1 1-2 2c-1 2-1 2 2 1zm27-8l-3-3-2 3h5zm5-2c2-1 2-2 1-3h-5l-1 1c-1 1-1 1 1 1l1 1h3zM55 521l1-2h-1-1l-2-1h-2v-2h3l2 1 1 1 3 1-3 3-1-1zm27-118h1v1l-1-1zm953-22h-1l1-1h4l1 1h-5zm2-19h-2l-1-1 1-2 4 3h-2zm23-11c0-1 1-2 2-1v2c0-1 0-1 0 0-1 1-1 1-2-1zm-930-5v-1l1 1v1l-1-1zm891-6l1-1-1 1c-1 0-1 0 0 0zm31-11l-3-1-2-1-2-1-2-1s-1 0 0 0h3l3 1v1h1l1 1 4 1h-3zm-5-8l-4-1v-1c1-2 4-3 5-2l1 1 1 2 1 1h-4zm23-6l-4-1c-2-1-3-1-3-3l2-2 5 1 2 3 2 2h-4zm-494-2l-2-1h-1c-1 0-1 0 0 0v1c-1 0-3-2-3-4h1l4 2 2 1c3 1 2 2-1 1zm-403-3l-1-2 3 2h-2zm409-3c-3 0-3-1 0-1l3-1h2c1 1 2 1 1 2h-6zm476-1v-1h-1l-2-1-1-2 1-3 2 3 2 2v1c2 0 2 2 0 2l-1-1zm-890-2l2-2 2-2h3c6 0 7 2 1 3l-4 1h-4zm425-1c-2 0-2-1-1-1h10l-1 2h-4l-4-1zm325-3v-1l-1-1h-2l-1-1h4l1-1h6l1-1h1c1-2 1-2-3-2l-3-1 4-2 3-1 2-1h-1l4-1 10-1 5-1c5-1 6-2 4-3l-1-1h4c4 1 11 0 13-1l5-1h7l-1 1-2 1 3 1c3 1 3 1 0 2l-2 1-3 1-5 1-5 1a113 113 0 0 0-15 3l-12 3v1h14a222 222 0 0 1 22-6l-4 3-5 3-10 3-4 1-7 1h-26zm105-3v-1l2-1 2 2-1 1-3-1zm-317-3l-7-2-3-3h2l11-2a140 140 0 0 1 31 1l5 1h2l3 1 2-1-2 2h-8l-6 1h-17l-1 1h-2l-4 1h-6zm211-1v-2 2zm-158 0l-3-1-4-1 1-1 10-1c3 1 4 2 2 2h-2l1 1-5 1zm123-1l1-1 1 1h-2zm9 0h2l-1 1-1-1zm5 1c-1-1-1-2 1-2h1l5 1h5l-12 1zm17 0c-2-1-3-2-1-2l1 1 1-1h1l-1 2h1-2zm-261-1l2-1-1 1h-1zm217 0l-1-1 1 1c1 1 1 1 0 0zm3 0c-3 0-2-1 0-1h3l-3 1zm4 0v-1l1 1h-1zm1 0l1-1h1l-1 1h-1zm146 0l-2-1-3-1 7-1c2 0 1 3 0 3h-2zm-368-1h1v1l-1-1zm210 0l1-1 1 1-1 1-1-1zm-23-1h-1l-5-2h4c4 0 5 0 4 2h-2zm8 0c-1-2-1-2 3-1 3 1 4 2 0 1h-3zm-156 0l1-1v1h-1zm152-1v-1 1zm28-1h-1l-1-1h5v1l-2 1-1-1zm-706 0l1-1c1-1 1 0 1 1h-2zm699 0c-2 0-1-2 1-2h1l1 1 1 1h-4zm-578-6v-1l1-2h1v1l1 1c1 1 1 1-1 1h-2zm752-1c-1-1-1-1 1-1h2l1 1h-4zm-759-1l-3-2-2-1 2-1h4l6-2 4-1c2 1 11 2 18 1h13l-9 1c-6 1-7 1-6 2s0 1-2 1h-8l-5-1a452 452 0 0 1-11 2v1h-1zm653-2l-2-1h-2-4a393 393 0 0 1-29-2h3c1-1 4-2 17-3a218 218 0 0 0 45-6c1 1-2 3-4 3l-5 2-8 2-7 2c-1 0 1 2 2 1l1 1h4l-8 2-3-1zm2 0v-1l-1 1h1zm13-1l-1-1h4l1-1 1 1c0-1 1 0 0 0h-1l-1 1h-3zm-427-2v-1l2-1h1l-2 2h-1zm350 0h1c1 0 1 0 0 0h-1zm6-8l1-1 1 1h1l9-2 13-1a1099 1099 0 0 0 38-2l10-1-4 1-11 2-6 1-8 1h-11l-3 1h-9a411 411 0 0 1-21 0zm-463-16l1-1v2l-1-1z"/></svg>