<svg xmlns:svg="http://www.w3.org/2000/svg" xmlns="http://www.w3.org/2000/svg" version="1.1" x="0" y="0" viewBox="0 0 100 125"><g transform="translate(0,-952.36218)"><path d="M49.8 6A2 2 0 0 0 48.6 6.6L42.6 12.6A2 2 0 1 0 45.4 15.4L48 12.8 48 13A2 2 0 1 0 52 13L52 12.8 54.6 15.4A2 2 0 1 0 57.4 12.6L51.4 6.6A2 2 0 0 0 49.8 6zM50 16C48.6 16 47.5 17.1 47.5 18.5 47.5 19.9 48.6 21 50 21 51.4 21 52.5 19.9 52.5 18.5 52.5 17.1 51.4 16 50 16zM43.8 21A2 2 0 0 0 42.6 24.4L48.6 30.4A2 2 0 0 0 51.4 30.4L57.4 24.4A2 2 0 1 0 54.6 21.6L52 24.2 52 24A2 2 0 0 0 49.8 22 2 2 0 0 0 48 24L48 24.2 45.4 21.6A2 2 0 0 0 43.8 21zM50 34C40 34 32 42 32 52L32 74C32 84 40 92 50 92 60 92 68 84 68 74L68 52C68 42 60 34 50 34zM50 42C51.7 42 53 43.3 53 45L53 53C53 54.7 51.7 56 50 56 48.3 56 47 54.7 47 53L47 45C47 43.3 48.3 42 50 42z" transform="translate(0,952.36218)" fill="#d4d4d4"/></g></svg>