<svg version="1.1" xmlns="http://www.w3.org/2000/svg" x="0" y="0" width="554.6" height="554.6" viewBox="0 0 554.6 554.6" xml:space="preserve"><path fill="#ffffff" d="M448.7 229.5c-11.5 0-21 3.8-28.7 9.6l0 0c0-26.8-21-47.8-47.8-47.8 -11.5 0-22.9 3.8-32.5 11.5 -7.6-19.1-24.9-30.6-44-30.6 -11.5 0-21 3.8-28.7 9.6V95.6h133.9l-61.2 61.2 15.3 15.3 86.1-86.1L355 0l-15.3 15.3 63.1 61.2H267c-3.8-21-22.9-38.2-45.9-38.2 -26.8 0-47.8 21-47.8 47.8v170.2c-38.2-34.4-80.3-61.2-107.1-34.4 -38.2 38.3 42.1 112.8 103.3 225.7 44 78.4 105.2 107.1 166.4 107.1 89.9 0 162.6-72.7 162.6-162.6v-114.7C496.5 250.5 475.4 229.5 448.7 229.5zM477.4 319.4v72.7c0 74.6-65 143.4-143.4 143.4 -72.7 0-114.7-40.2-149.2-95.6 -72.7-126.2-126.2-183.6-107.1-204.6 21-21 72.7 24.9 112.8 66.9V86.1c0-15.3 13.4-28.7 28.7-28.7 15.3 0 28.7 13.4 28.7 28.7v200.8h19.1v-66.9c0-15.3 13.4-28.7 28.7-28.7 15.3 0 28.7 13.4 28.7 28.7v47.8h19.1v-28.7c0-15.3 13.4-28.7 28.7-28.7 15.3 0 28.7 13.4 28.7 28.7v47.8h19.1v-9.6c0-15.3 13.4-28.7 28.7-28.7 15.3 0 28.7 13.4 28.7 28.7V319.4z"/></svg>