<svg version="1.1" id="Layer_1" xmlns="http://www.w3.org/2000/svg" x="0" y="0" viewBox="0 0 858.25 122.67" xml:space="preserve"><path d="M96.14 88.84c-2.12 0-4.26.91-5.88 2.51-9.65 8.83-18.86 12.59-30.78 12.59-10.89 0-20.95-4.36-28.34-12.28-7.4-7.93-11.48-18.72-11.48-30.37v-.31c0-24.13 17.12-42.33 39.81-42.33 11.33 0 20.51 3.66 29.75 11.88l.31.24c1.91 1.27 3.76 1.89 5.65 1.89 4.94 0 9.11-4.1 9.11-8.95 0-2.65-1.24-5.19-3.48-7.16l-.05-.05C91.86 9.09 80.01 1.52 59.64 1.52c-16.23 0-31.16 6.27-42.03 17.67C6.99 30.32 1.14 45.27 1.14 61.29v.32c0 16.14 5.85 31.1 16.48 42.13 10.76 11.17 25.52 17.32 41.56 17.32 16.99 0 29.78-5.06 42.77-16.91 1.87-1.62 2.99-4.05 2.99-6.51 0-4.69-4.11-8.8-8.8-8.8zm82.81-87.32c-16.61 0-31.8 6.38-42.77 17.97-10.55 11.14-16.37 25.99-16.37 41.8v.32c0 15.81 5.76 30.6 16.21 41.64 10.88 11.49 26.01 17.81 42.61 17.81 16.61 0 31.8-6.38 42.77-17.97 10.55-11.14 16.37-25.99 16.37-41.8v-.31c0-15.81-5.76-30.6-16.21-41.64-10.87-11.49-26-17.82-42.61-17.82zm40.29 59.77v.32c0 24.13-17.32 42.33-40.29 42.33-11.24 0-21.58-4.43-29.09-12.46-7.42-7.93-11.51-18.66-11.51-30.19v-.31c0-24.13 17.32-42.33 40.29-42.33 11.24 0 21.58 4.43 29.09 12.46 7.42 7.93 11.51 18.65 11.51 30.18zM344.06 2.63c-5.02 0-9.11 4.09-9.11 9.11v40.6h-57.92v-40.6c0-5.02-4.09-9.11-9.11-9.11-4.94 0-8.95 4.09-8.95 9.11v99.11c0 5.02 4.02 9.11 8.95 9.11 5.02 0 9.11-4.09 9.11-9.11V69.61h57.92v41.24c0 5.02 4.09 9.11 9.11 9.11 4.85 0 8.95-4.17 8.95-9.11V11.74c0-4.94-4.1-9.11-8.95-9.11zm112.24 99.58h-60.11V69.3h52.24c4.68 0 8.48-3.8 8.48-8.48 0-4.6-3.89-8.48-8.48-8.48h-52.24V20.37h59.32c4.68 0 8.48-3.8 8.48-8.48 0-4.68-3.81-8.48-8.48-8.48h-68.44c-4.94 0-8.95 4.09-8.95 9.11v97.54c0 5.02 4.02 9.11 8.95 9.11h69.22c4.68 0 8.48-3.81 8.48-8.48.01-4.68-3.79-8.48-8.47-8.48zM618.24 2.63c-4.85 0-8.95 4.17-8.95 9.11v99.11c0 5.02 4.02 9.11 8.95 9.11 5.02 0 9.11-4.09 9.11-9.11V11.74c0-5.03-4.09-9.11-9.11-9.11zm111.87.78h-76.46c-4.68 0-8.64 3.96-8.64 8.64 0 4.68 3.88 8.48 8.64 8.48h29.12v90.32c0 5.02 4.09 9.11 9.11 9.11s9.11-4.09 9.11-9.11V20.53h29.12c4.76 0 8.64-3.8 8.64-8.48-.01-4.68-3.96-8.64-8.64-8.64zm117.65-.78c-4.03 0-6.36 2.51-8.13 4.98l-34.34 49.08-34.06-49.1c-1.65-2.31-4.08-4.96-8.27-4.96-5.02 0-9.27 4.1-9.27 8.95 0 1.88.6 3.76 1.85 5.74l40.47 56.67v36.86c0 5.02 4.09 9.11 9.11 9.11s9.11-4.09 9.11-9.11V73.69l40.21-55.9.1-.15c.92-1.48 2.15-3.72 2.15-6.05.01-4.95-4-8.96-8.93-8.96zM546.22 36.16h-25.97c-4.77 0-8.65 3.88-8.65 8.65 0 4.77 3.88 8.65 8.65 8.65h25.97c13.38 0 24.26 10.89 24.26 24.27 0 13.38-10.89 24.26-24.26 24.26h-51.89c-4.77 0-8.65 3.88-8.65 8.65 0 4.77 3.88 8.65 8.65 8.65h51.89c22.92 0 41.57-18.65 41.57-41.57s-18.65-41.56-41.57-41.56z"/><path d="M519.63 86.52h26.17c4.77 0 8.65-3.88 8.65-8.65 0-4.77-3.88-8.65-8.65-8.65h-26.17c-13.38 0-24.26-10.88-24.26-24.26s10.88-24.27 24.26-24.27h50.19c4.77 0 8.65-3.88 8.65-8.65 0-4.77-3.88-8.65-8.65-8.65h-50.19c-22.92 0-41.57 18.65-41.57 41.57s18.65 41.56 41.57 41.56z"/></svg>