<?xml version="1.0" standalone="no"?>
<!DOCTYPE svg PUBLIC "-//W3C//DTD SVG 20010904//EN"
 "http://www.w3.org/TR/2001/REC-SVG-20010904/DTD/svg10.dtd">
<svg version="1.0" xmlns="http://www.w3.org/2000/svg"
 width="196.000000pt" height="196.000000pt" viewBox="0 0 196.000000 196.000000"
 preserveAspectRatio="xMidYMid meet">
<metadata>
Created by potrace 1.11, written by Peter Selinger 2001-2013
</metadata>
<g transform="translate(0.000000,196.000000) scale(0.100000,-0.100000)"
fill="#000000" stroke="none">
<path d="M923 1873 c4 -49 9 -123 13 -165 l7 -78 33 0 c41 0 43 8 43 193 l0
137 -51 0 -50 0 5 -87z"/>
<path d="M1147 1868 c-4 -58 -11 -94 -19 -99 -11 -7 -11 -12 1 -31 7 -12 19
-42 25 -67 24 -99 43 -24 45 177 1 111 1 112 -23 112 -22 0 -23 -4 -29 -92z"/>
<path d="M1735 1950 c-11 -5 -40 -9 -65 -10 -25 -1 -53 -4 -62 -8 -19 -8 -12
-25 12 -35 10 -3 7 -6 -8 -6 -40 -2 -13 -21 29 -21 21 0 39 -4 39 -10 0 -5 18
-10 40 -10 29 0 40 -4 40 -15 0 -11 -11 -15 -40 -15 -39 0 -40 -1 -40 -35 0
-31 -3 -35 -39 -45 -31 -8 -42 -17 -50 -42 -23 -66 -11 -93 44 -100 31 -3 31
-2 21 -64 -3 -19 -27 -44 -42 -44 -8 0 -14 -5 -14 -11 0 -9 16 -7 56 8 7 2 15
-1 19 -7 8 -13 38 23 49 58 6 16 14 22 29 20 33 -5 47 -58 41 -163 -3 -49 -7
-174 -9 -277 -4 -238 -15 -386 -26 -366 -5 9 -13 57 -19 108 -6 51 -15 111
-21 134 -20 77 -30 161 -29 235 1 67 0 72 -14 58 -18 -17 -21 -47 -6 -47 6 0
10 -9 10 -20 0 -11 -4 -20 -10 -20 -5 0 -10 -13 -10 -29 0 -61 -13 -121 -26
-121 -34 0 -43 -51 -59 -330 -2 -41 -8 -124 -12 -185 -4 -60 -7 -125 -6 -142
0 -27 -3 -33 -21 -33 -33 1 -59 20 -127 95 -76 85 -129 136 -153 150 -18 10
-18 12 -1 45 17 33 37 90 31 90 -2 0 -15 -18 -30 -41 -18 -27 -32 -39 -42 -35
-9 3 -12 1 -9 -4 3 -6 -4 -14 -17 -19 -36 -14 -76 -54 -83 -83 -5 -17 -12 -25
-21 -21 -8 3 -14 0 -14 -7 0 -6 -4 -9 -9 -5 -5 3 -13 1 -16 -5 -5 -8 -14 -7
-28 3 -38 24 -56 27 -72 11 -8 -9 -15 -11 -15 -4 0 7 -6 8 -17 2 -10 -5 -24
-7 -31 -5 -7 3 -19 0 -27 -7 -11 -9 -16 -7 -25 9 -13 26 -27 27 -33 4 -3 -11
-5 -8 -6 9 -1 18 -14 39 -37 60 -20 18 -42 38 -48 44 -6 5 -19 13 -29 17 -9 3
-17 11 -17 17 0 5 -5 10 -11 10 -6 0 -19 10 -30 23 -10 12 -18 18 -18 12 1
-49 142 -247 168 -237 10 4 12 1 6 -8 -5 -8 -4 -11 3 -6 6 3 26 -3 44 -14 18
-11 47 -20 65 -20 17 0 34 -4 37 -9 3 -5 23 -7 43 -5 21 2 32 1 26 -2 -7 -3
-13 -14 -13 -25 0 -13 7 -19 23 -18 12 0 16 3 10 6 -24 9 -13 23 17 23 18 0
34 7 42 19 6 10 18 17 25 14 7 -3 13 -1 13 5 0 6 -5 12 -12 14 -6 2 7 4 30 4
23 -1 42 -5 43 -11 3 -21 -3 -50 -12 -61 -17 -21 -20 -91 -5 -104 8 -6 12 -18
9 -26 -3 -8 0 -14 6 -14 6 0 11 8 12 18 0 10 3 12 6 5 5 -13 -36 -88 -44 -80
-2 3 -18 -8 -35 -23 -80 -73 -229 -111 -302 -76 -19 9 -38 16 -43 16 -14 1
-89 70 -75 70 6 0 12 -5 12 -12 0 -6 3 -9 6 -6 7 7 -43 100 -60 110 -8 5 -7 8
3 8 10 0 11 3 3 13 -6 7 -14 31 -16 54 -3 22 -11 53 -17 69 -6 16 -13 73 -16
127 -3 53 -8 97 -10 97 -19 0 -106 -56 -131 -85 -34 -38 -40 -63 -19 -84 10
-10 9 -14 -5 -22 -10 -6 -18 -18 -18 -27 0 -21 -145 -116 -162 -106 -7 4 -8 3
-4 -4 4 -7 -7 -18 -26 -28 l-33 -16 23 21 c12 12 22 26 22 31 0 5 11 26 25 46
28 42 24 62 -6 25 -10 -13 -19 -18 -19 -12 0 6 -7 8 -15 5 -8 -4 -13 -10 -10
-14 3 -5 -1 -12 -9 -17 -8 -4 -14 -17 -13 -27 1 -10 -4 -21 -12 -24 -10 -3
-12 0 -7 13 3 10 1 24 -5 32 -10 12 -15 11 -33 -5 -26 -23 -56 -35 -56 -22 0
6 9 10 20 10 11 0 20 7 20 15 0 8 -4 15 -9 15 -4 0 -11 34 -14 76 -7 90 -20
109 -66 99 l-31 -7 0 -119 c0 -65 4 -119 8 -119 5 0 17 7 28 15 22 17 43 20
27 4 -6 -6 -9 -18 -6 -25 3 -8 0 -14 -7 -14 -6 0 -8 4 -5 10 3 5 -1 10 -10 10
-9 0 -13 -4 -10 -10 3 -5 -1 -10 -9 -10 -12 0 -15 -9 -14 -32 2 -18 8 -36 13
-40 6 -5 5 -8 -2 -8 -10 0 -13 -26 -13 -95 l0 -95 980 0 980 0 -1 153 c0 83
-3 146 -6 140 -8 -20 -26 -15 -60 15 -36 34 -39 53 -49 327 -3 99 -11 221 -18
270 -11 90 -8 152 13 275 6 36 13 115 17 175 7 138 20 223 36 242 7 9 23 13
40 11 l28 -5 0 179 0 178 -102 -1 c-57 0 -112 -4 -123 -9z m-1288 -1597 c-3
-10 -5 -4 -5 12 0 17 2 24 5 18 2 -7 2 -21 0 -30z m984 0 c13 -16 12 -17 -3
-4 -17 13 -22 21 -14 21 2 0 10 -8 17 -17z m-1318 -68 c9 -22 -8 -26 -21 -4
-10 15 -10 19 2 19 8 0 16 -7 19 -15z m1266 -37 c-5 -10 -11 -18 -12 -18 -2 0
-3 8 -3 18 0 10 6 19 13 19 8 0 9 -6 2 -19z m-1339 2 c0 -5 -7 -10 -16 -10 -8
0 -12 5 -9 10 3 6 10 10 16 10 5 0 9 -4 9 -10z m1135 -110 c-3 -5 -12 -10 -18
-10 -7 0 -6 4 3 10 19 12 23 12 15 0z m-489 -60 c1 -20 -3 -30 -12 -30 -8 0
-14 4 -14 9 0 5 -3 17 -7 27 -5 13 -3 16 10 11 9 -3 17 -3 17 2 0 14 -26 31
-35 23 -5 -4 -5 -1 0 6 11 21 39 -12 41 -48z"/>
<path d="M1600 1790 c0 -5 7 -7 15 -4 8 4 15 8 15 10 0 2 -7 4 -15 4 -8 0 -15
-4 -15 -10z"/>
<path d="M1172 1580 c0 -14 2 -19 5 -12 2 6 2 18 0 25 -3 6 -5 1 -5 -13z"/>
<path d="M786 1193 c-4 -4 21 -13 56 -20 34 -7 63 -11 65 -9 2 2 -3 11 -12 20
-17 16 -95 23 -109 9z"/>
<path d="M1110 1155 c-12 -14 -7 -19 13 -16 5 1 6 -3 2 -9 -3 -5 -16 -10 -29
-10 -34 0 -60 -23 -53 -49 3 -11 1 -19 -4 -15 -5 3 -9 0 -9 -5 0 -6 10 -11 23
-11 17 0 19 -2 8 -9 -10 -7 -8 -9 10 -9 13 0 35 -3 49 -6 14 -3 18 -3 10 0 -8
4 -20 13 -28 20 -12 13 9 13 132 1 12 -1 20 6 22 21 3 14 -1 22 -8 20 -21 -4
-118 23 -118 33 0 22 65 32 103 15 26 -12 32 0 11 22 -24 25 -115 30 -134 7z"/>
<path d="M570 1151 c0 -5 5 -13 10 -16 6 -3 10 -2 10 4 0 5 -4 13 -10 16 -5 3
-10 2 -10 -4z"/>
<path d="M534 1124 c3 -9 6 -23 6 -32 1 -16 1 -16 10 0 11 18 3 48 -12 48 -6
0 -7 -7 -4 -16z"/>
<path d="M738 1111 c-22 -18 -22 -18 28 -25 27 -4 63 -12 81 -19 30 -10 34 -9
58 19 14 16 25 32 25 36 0 4 -38 7 -85 7 -66 0 -90 -5 -107 -18z"/>
<path d="M1310 1080 c0 -5 4 -10 9 -10 6 0 13 5 16 10 3 6 -1 10 -9 10 -9 0
-16 -4 -16 -10z"/>
<path d="M1341 1066 c-7 -8 -11 -27 -9 -43 4 -27 4 -26 16 11 13 44 11 54 -7
32z"/>
<path d="M813 1043 c9 -2 23 -2 30 0 6 3 -1 5 -18 5 -16 0 -22 -2 -12 -5z"/>
<path d="M1033 1010 c1 -20 12 -26 20 -12 3 4 -1 13 -8 19 -11 10 -13 9 -12
-7z"/>
<path d="M560 1002 c0 -10 7 -27 15 -38 16 -21 20 -8 9 34 -8 26 -24 29 -24 4z"/>
<path d="M1303 962 c3 -23 7 -46 11 -49 10 -11 6 61 -5 77 -7 11 -9 4 -6 -28z"/>
<path d="M1040 970 c0 -5 11 -17 25 -26 35 -23 33 -48 -2 -41 -19 3 -34 -1
-49 -16 l-22 -21 26 -23 c15 -13 36 -23 48 -23 11 0 26 -6 33 -12 11 -11 12
-10 6 1 -4 8 -2 17 6 22 11 7 9 10 -8 15 -26 7 -32 34 -8 34 16 0 21 37 7 55
-12 18 -62 46 -62 35z"/>
<path d="M784 889 c-19 -22 -19 -22 4 -10 12 6 22 16 22 21 0 15 -5 12 -26
-11z"/>
<path d="M913 903 c9 -2 25 -2 35 0 9 3 1 5 -18 5 -19 0 -27 -2 -17 -5z"/>
<path d="M903 883 c9 -2 23 -2 30 0 6 3 -1 5 -18 5 -16 0 -22 -2 -12 -5z"/>
<path d="M880 860 c0 -5 5 -10 11 -10 5 0 7 -4 4 -10 -3 -6 1 -7 9 -4 9 3 13
10 10 15 -3 5 2 9 11 9 9 0 14 -4 11 -9 -7 -11 31 -22 50 -14 12 4 11 8 -3 19
-21 16 -103 19 -103 4z"/>
<path d="M1163 848 c2 -7 9 -12 15 -11 6 2 14 -6 17 -17 4 -11 11 -20 16 -20
11 0 4 16 -19 43 -17 20 -36 23 -29 5z"/>
<path d="M790 810 c-25 -4 -36 -8 -26 -8 11 -1 39 -13 62 -27 24 -14 63 -28
88 -31 25 -4 44 -10 41 -14 -2 -4 7 -5 20 -2 15 2 25 0 25 -7 0 -6 5 -11 11
-11 5 0 7 5 4 10 -9 14 9 12 23 -2 10 -10 15 -10 21 1 5 7 14 10 20 7 6 -4 11
-2 11 4 0 15 68 43 82 34 8 -5 9 -1 5 10 -4 10 -7 22 -7 28 0 7 -5 7 -14 -1
-14 -12 -118 -12 -110 0 2 4 -4 6 -13 4 -10 -2 -27 -4 -37 -4 -29 -1 -11 -13
25 -17 37 -5 43 -9 35 -22 -10 -16 -129 -4 -142 13 -8 10 -13 12 -16 5 -5 -17
-38 -1 -38 19 0 10 3 12 8 5 4 -6 17 -7 32 -3 14 4 18 7 9 8 -9 1 -29 3 -45 5
-16 2 -49 0 -74 -4z"/>
<path d="M955 800 c-3 -5 -1 -10 4 -10 6 0 11 5 11 10 0 6 -2 10 -4 10 -3 0
-8 -4 -11 -10z"/>
<path d="M340 435 c-13 -16 -8 -18 27 -9 13 4 20 10 17 15 -8 14 -30 11 -44
-6z"/>
</g>
</svg>
